# Blender 4.3.2
# www.blender.org
mtllib arrow.mtl
o Arrow
v -0.250000 0.250000 -2.000000
v -0.250000 -0.250000 -2.000000
v -0.250000 0.250000 0.000000
v -0.250000 -0.250000 0.000000
v 0.250000 0.250000 -2.000000
v 0.250000 -0.250000 -2.000000
v 0.250000 0.250000 -0.000000
v 0.250000 -0.250000 -0.000000
v 0.750000 0.250000 -2.000000
v 0.750000 -0.250000 -2.000000
v -0.750000 0.250000 -2.000000
v -0.750000 -0.250000 -2.000000
v -0.000001 -0.250000 -3.000000
v -0.000000 0.250000 -3.000000
vn -1.0000 -0.0000 -0.0000
vn -0.0000 -0.0000 1.0000
vn 1.0000 -0.0000 -0.0000
vn -0.0000 1.0000 -0.0000
vn -0.8000 -0.0000 -0.6000
vn 0.8000 -0.0000 -0.6000
vn -0.0000 -1.0000 -0.0000
vt 0.625000 0.000000
vt 0.375000 0.250000
vt 0.375000 0.000000
vt 0.625000 0.250000
vt 0.375000 0.500000
vt 0.625000 0.500000
vt 0.375000 0.750000
vt 0.375000 0.375000
vt 0.625000 0.750000
vt 0.625000 0.375000
s 0
usemtl Material
f 2/1/1 3/2/1 1/3/1
f 4/4/2 7/5/2 3/2/2
f 8/6/3 5/7/3 7/5/3
f 1/3/4 5/7/4 14/8/4
f 10/9/2 5/7/2 6/9/2
f 11/3/2 2/1/2 1/3/2
f 12/1/5 14/8/5 13/10/5
f 13/10/6 9/7/6 10/9/6
f 2/1/7 13/10/7 6/9/7
f 2/1/1 4/4/1 3/2/1
f 4/4/2 8/6/2 7/5/2
f 8/6/3 6/9/3 5/7/3
f 1/3/4 3/2/4 7/5/4
f 5/7/4 9/7/4 14/8/4
f 1/3/4 7/5/4 5/7/4
f 14/8/4 11/3/4 1/3/4
f 10/9/2 9/7/2 5/7/2
f 11/3/2 12/1/2 2/1/2
f 12/1/5 11/3/5 14/8/5
f 13/10/6 14/8/6 9/7/6
f 2/1/7 12/1/7 13/10/7
f 13/10/7 10/9/7 6/9/7
f 6/9/7 8/6/7 4/4/7
f 4/4/7 2/1/7 6/9/7
